<?xml version="1.0" encoding="utf-8"?>
<!-- Svg Vector Icons : http://www.onlinewebfonts.com/icon -->
<!DOCTYPE svg PUBLIC "-//W3C//DTD SVG 1.1//EN" "http://www.w3.org/Graphics/SVG/1.1/DTD/svg11.dtd">
<svg version="1.1" xmlns="http://www.w3.org/2000/svg" xmlns:xlink="http://www.w3.org/1999/xlink" x="0px" y="0px" viewBox="0 0 256 256" enable-background="new 0 0 256 256" xml:space="preserve">
<metadata> Svg Vector Icons : http://www.onlinewebfonts.com/icon </metadata>
<g><g><g><path fill="#000000" d="M111.1,46.7C99.7,58.3,81.7,68.5,62.9,74.2c-6.8,2.1-17.3,4.2-24.2,4.9c-6.1,0.6-21.6,0.3-25.7-0.5c-1.5-0.3-2.8-0.4-3-0.3c-0.3,0.3,1.3,5,5.4,15.3c9.9,25,21.2,43.9,34.4,57.5c10.4,10.7,21.3,17.6,32.6,20.6c4.4,1.2,13.4,1.7,16.3,0.9c2.9-0.8,8.4-4.7,11.9-8.4c18.1-19.2,21.3-54.8,9.2-101.8c-1.4-5.6-5.2-18.6-5.5-18.9C114.3,43.5,112.9,44.9,111.1,46.7z M106.1,95.3c1.5,0.8,3.4,2.1,4.1,2.9l1.3,1.4l-1.9-0.4c-1-0.2-4-0.4-6.7-0.4c-6.1,0-7.2,0.5-12.1,5.3c-2,1.9-3.6,3.3-3.6,3c0-0.2,0.3-1.5,0.6-2.8C90.4,94.9,98.2,91,106.1,95.3z M63.9,109.2c1.5,0.8,3.4,2,4.2,2.9l1.4,1.5l-1.4-0.3c-0.7-0.2-3.5-0.5-6.2-0.6c-4.6-0.2-4.8-0.2-7.6,1.2c-1.9,1-4,2.5-6,4.7c-1.7,1.8-3.1,3-3.1,2.7c0-0.3,0.3-1.6,0.6-2.9C48.2,108.8,55.7,105.1,63.9,109.2z M113.4,124.1c-2.6,9.2-9.9,17.8-18.4,21.9c-4.5,2.2-8.1,3.1-13.5,3.4c-7.8,0.5-14.7-1.4-21.2-5.7c-4-2.6-4.4-3.2-1.7-2.8c8.1,1.2,20.4,0.8,27-0.9c6.6-1.7,16.9-8,24.2-14.8c2-1.9,3.8-3.4,3.9-3.4C113.9,121.7,113.7,122.8,113.4,124.1z"/><path fill="#000000" d="M141.8,82.7c-0.6,0.9-4.6,15.2-6.3,22c-4.5,18.3-5.8,28.3-5.8,45c0,11.6,0.1,13.6,1,18.9c2.5,13.8,6.7,23.9,13.6,32.5c3.3,4.1,7.9,8.1,11.3,9.7c3,1.5,8.7,1.9,14.1,1.1c27.5-4,53-33,71.8-81.7c3.5-8.9,4.7-12.4,4.4-12.6c-0.1-0.1-1.7,0-3.4,0.4c-5,0.9-23.3,0.8-29.6-0.2c-14.9-2.5-27.6-6.5-39.6-12.6c-11.2-5.6-19-11.1-26.7-18.5C144.1,84.3,141.9,82.4,141.8,82.7z M160.7,133.5c1.3,0.6,2.9,1.7,3.6,2.4c1.8,1.9,3.6,5.7,3.9,8.3l0.3,2.3l-2.6-2.9c-5.2-5.6-9.4-7.2-16.3-6.2c-2.1,0.3-4.2,0.6-4.6,0.8c-2,0.7,2.2-2.8,5.1-4.3C153.9,131.9,157.1,131.8,160.7,133.5z M202.3,147.3c3.4,1.5,6.2,4.8,7.5,9.1c1.3,4.2,1,4.3-2.3,0.9c-4.1-4.3-6.9-5.6-11.3-5.9c-2-0.1-4.8,0.1-6.6,0.5l-3.1,0.6l1.5-1.6c2.5-2.6,6.5-4.3,10-4.3C199.4,146.7,201.4,147,202.3,147.3z M170.6,163.4c7.5,2.1,15.5,7.8,19.7,14.2c1.9,2.9,4.5,8.7,5,11.2l0.3,1.6l-3.4-3.1c-10.2-9.4-19.3-14.5-28.4-16.3c-4.6-0.8-15-1.1-21.5-0.5l-3.9,0.3l1.6-1.4c3.4-3,10.7-6.1,16.4-7C160,161.9,166.7,162.3,170.6,163.4z"/></g></g></g>
</svg>