<?xml version="1.0" encoding="utf-8"?>
<!-- Svg Vector Icons : http://www.onlinewebfonts.com/icon -->
<!DOCTYPE svg PUBLIC "-//W3C//DTD SVG 1.1//EN" "http://www.w3.org/Graphics/SVG/1.1/DTD/svg11.dtd">
<svg version="1.1" xmlns="http://www.w3.org/2000/svg" xmlns:xlink="http://www.w3.org/1999/xlink" x="0px" y="0px" viewBox="0 0 256 256" enable-background="new 0 0 256 256" xml:space="preserve">
<metadata> Svg Vector Icons : http://www.onlinewebfonts.com/icon </metadata>
<g><g><g><path fill="#000000" d="M33.3,10.8c-4.7,1.7-6.5,5.1-8.5,15.9c-2.4,13.6-2.6,32-0.7,46.8c4.8,35.9,19.6,64.5,40.5,78.3c6.5,4.4,11.9,6.8,19.3,8.8c8,2.1,21.9,2.2,29.9,0.2c27.7-6.8,48.1-31.6,57.4-69.5c5.3-21.7,6.2-46.1,2.3-66.7c-1.4-7.4-2.9-10.8-5.9-12.7c-3.4-2.3-5.9-2.4-13-0.2c-15.4,4.6-30.5,6.4-55.3,6.4c-24.8,0-40.3-1.8-55.1-6.4C37.5,9.6,36.7,9.6,33.3,10.8z M40.9,20.7c6.8,2.3,20.1,4.8,33,6.2c11.1,1.2,42.5,1,53.9-0.3c10.4-1.3,21.3-3.3,28.8-5.5c2.9-0.8,5.4-1.3,5.7-1c1.8,1.8,4,19.3,4,31.3c0,28.3-7.3,55.5-20.1,74.6c-3.9,5.8-14.2,16.1-18.8,18.8c-10.1,5.9-19.8,8.4-30.8,7.8c-7.8-0.4-12.7-1.6-19.3-4.7c-6.7-3.1-11.6-6.6-17.1-12.4c-17.3-18.1-27.9-50-27.9-84.1c0-11,2-27.5,3.8-30.8C36.8,19.3,36.9,19.3,40.9,20.7z"/><path fill="#000000" d="M65,53.5C53,55.6,47,66.2,53.2,74.3c1.3,1.7,3.3,3.3,6.1,4.7l4.2,2.1h8.8c10.1,0,12.6-0.7,14.3-4c1.5-2.7,1-8.4-0.9-12.4c-1.8-3.8-6.5-8.5-9.9-10C72.6,53.3,68.6,52.8,65,53.5z M71.7,63.4c2.2,1.2,5.4,4.8,5.9,6.8c0.2,0.8,0.3,1.6,0.2,1.7c-0.1,0.1-3.2,0-6.7-0.2c-6.8-0.4-9.9-1.6-10.6-3.8c-0.5-1.5,1.3-3.3,4.4-4.4C67.9,62.4,69.6,62.4,71.7,63.4z"/><path fill="#000000" d="M126.3,53.4c-5.4,1.1-10.4,5.1-13.6,11c-1.5,2.8-1.8,3.9-1.8,7.6c0,4,0.1,4.5,1.8,6.2c2.4,2.5,6.7,3.3,15.2,2.9c7.8-0.4,11.2-1.4,14.8-4.5c8.1-7,5.5-18-5.1-21.9C133.8,53.4,129.2,52.9,126.3,53.4z M132.6,63.3c3,0.7,5.3,2.9,5,4.6c-0.4,2.1-5.1,3.7-11.5,3.9c-5.3,0.2-5.9,0.1-5.9-0.8c0-1.6,3.8-6.2,6.1-7.3C128.8,62.4,129.1,62.4,132.6,63.3z"/><path fill="#000000" d="M67.9,98c-2,1.9-2.8,5-2.8,10.7c0,15,9.7,28.2,24.2,32.8c5.5,1.8,14.5,1.8,20,0c11.4-3.6,20.3-12.9,23.3-24.3c1-3.9,1.2-12.1,0.2-15.4c-1.5-5.5-6.2-6.8-11.4-3.2c-6.4,4.4-14.1,6.1-24.8,5.6c-8.4-0.4-13.3-1.8-18.8-5.3C73.3,96,70.4,95.7,67.9,98z M77.8,109.8c5.7,2.9,11.3,3.9,21.5,3.9c10.2,0,15.8-1,21.5-3.9c1.3-0.7,2.5-1.2,2.8-1.2c1,0-0.3,6.8-2.1,10.5c-3.4,7.3-10.1,12.4-18.3,13.9c-10.4,1.8-21.6-4.1-26.2-13.8c-1.6-3.5-3-10.5-2.1-10.5C75.3,108.6,76.5,109.2,77.8,109.8z"/><path fill="#000000" d="M212.3,95.1c-2.5,0.8-7,2-10,2.7c-6.2,1.3-22.8,3.6-26.3,3.6h-2.3l-1.6,4.5c-0.8,2.5-1.6,4.7-1.6,5c0,0.2,3,0.2,6.8,0c12.4-0.7,27-3.2,36.8-6.2c6.2-1.9,6.2-1.9,7.6,5.7c1.8,9.6,2.4,18.2,2,29.5c-1.3,38.2-14.7,70.9-35.4,86.2c-18.5,13.6-43.4,13.8-62.2,0.4c-4.7-3.4-12.1-11.1-15.9-16.7c-7.1-10.6-13.4-25.9-16.8-41.2c-0.3-1.4-0.7-1.6-3.8-1.9c-1.9-0.2-4.1-0.6-4.8-0.8c-1.8-0.5-1.8,0.2,0.4,9.1c6.7,27.4,20.2,49.3,37.3,60.6c24.9,16.4,57.1,13.3,78.6-7.8c16.4-16.1,27-40.6,31.4-73.1c1.2-8.8,1-31.4-0.2-40c-2.2-14.1-3.6-17.5-8.3-19.9C220.5,93.1,218,93.2,212.3,95.1z"/><path fill="#000000" d="M182.6,137.3c-5.6,1.6-10.2,5.8-13.1,12.3c-1.3,2.8-1.5,4.1-1.3,7c0.2,3,0.5,3.9,2.1,5.4c2.4,2.4,7.1,3.3,15.4,2.8c7.1-0.3,11.9-1.9,15.3-5.1c7.1-6.7,4.1-17.4-6-21.3C190.8,136.8,185.9,136.4,182.6,137.3z M190.2,146.9c3.1,0.8,5.5,3,4.9,4.6c-0.7,2.3-3.9,3.4-10.7,3.8c-3.5,0.2-6.5,0.3-6.6,0.2c-0.1-0.1-0.1-0.8,0.2-1.7c0.7-3,5.8-7.6,8.4-7.6C187,146.2,188.7,146.5,190.2,146.9z"/><path fill="#000000" d="M125.4,181.4c-1.9,1.7-2.7,4.8-2.7,11.1c0,9.3,3.2,17,9.9,23.6c7.1,7.1,14.4,10.1,24.3,10.1c9.9,0,17.2-3,24.2-10.1c6.7-6.7,10-14.6,10-23.9c0-8.5-2.1-12.1-6.8-12.1c-1.9,0-3.2,0.4-4.7,1.6c-5.1,3.9-13.8,6.3-22.9,6.3c-9,0-16.2-1.9-22.1-6C131.1,179.6,127.7,179.4,125.4,181.4z M137.5,194.3c4.6,1.9,12.9,3.4,19.3,3.4c8.4,0,15.1-1.5,23.9-5.3c1.5-0.7,0.4,6.2-1.8,10.5c-4.8,9.8-15.6,15.4-25.8,13.6c-11-1.9-19.3-10.4-20.8-21C131.8,191.7,131.5,191.7,137.5,194.3z"/></g></g></g>
</svg>